<svg xmlns="http://www.w3.org/2000/svg" viewBox="-14 -14 344 284">
  <path fill="#ffffff" d="M226.664,0c109.321,2.5,122.515,164.301,16.501,190.307-4.295,1.054-8.711,1.547-13.134,1.57l-168.508,.89v62.366H0V88.909c0-3.91,.449-7.805,1.35-11.609,1.028-4.337,2.362-9.324,3.136-11.659C16.513,29.361,50.864,2.812,89.047,0h137.617ZM61.523,128.782h162.308c4.453,0,14.128-4.453,17.789-7.31,23.486-18.325,9.348-59.075-20.781-57.359-42.124-.179-83.283-.484-125.037.531-16.718.407-34.279,14.788-34.279,32.954v31.183Z"/>
</svg>
