<?xml version="1.0" encoding="UTF-8"?><svg id="Layer_1" xmlns="http://www.w3.org/2000/svg" viewBox="0 0 1507.318 256.447"><g id="_9WlzKz.tif"><path d="M562.613,0c72.838,4.181,99.566,56.048,100.419,123.479.868,68.621-22.384,127.614-99.166,131.695-44.155.76-90.455,2.443-134.452-.006-69.764-3.883-96.328-55.626-98.356-119.468C328.807,64.78,352.835,4.536,431.472,0h131.141ZM435.824,64.101c-57.173,6.294-54.271,127.566.072,127.885,39.912.235,83.303.995,123.876-.037,55.094-4.941,57.083-123.651-4.574-128.197"/><path d="M226.664,0c109.321,2.5,122.515,164.301,16.501,190.307-4.295,1.054-8.711,1.547-13.134,1.57l-168.508.89v62.366H0V88.909c0-3.91.449-7.805,1.35-11.609,1.028-4.337,2.362-9.324,3.136-11.659C16.513,29.361,50.864,2.812,89.047,0h137.617ZM61.523,128.782h162.308c4.453,0,14.128-4.453,17.789-7.31,23.486-18.325,9.348-59.075-20.781-57.359-42.124-.179-83.283-.484-125.037.531-16.718.407-34.279,14.788-34.279,32.954v31.183Z"/><path d="M1109.846,0c56.461,2.758,102.004,45.73,106.08,102.425l-.033,152.709h-63.952l-.009-130.798c.17-38.249-29.949-63.863-67.812-52.478-17.669,5.313-33.368,25.755-33.368,44.369v138.906h-63.952l.01-143.756C991.534,50.897,1030.523,3.74,1092.846,0h17Z"/><path d="M1296.83,48.178c9.029-23.048,25.486-38.434,49.399-45.339h0s5.843-1.206,5.843-1.206C1357.334.547,1362.694,0,1368.067,0h0c5.328,0,10.641.546,15.863,1.604,2.826.572,5.642,1.195,8.402,2.074,17.509,5.577,34.153,18.782,42.55,35.183l72.435,215.463v.81l-169.186-.004s0,0,0,0l19.954-62.653s0,0,0,0h60.758l-39.019-113.108h0c-4.139-8.174-18.594-8.317-23.443-.766h0s-11.888,33.869-11.888,33.869c0,0-.47,1.154-.47,1.154l-68.843-.229s0,0,0,0"/><path d="M739.088,0l.101,159.864c-.395,12.565,16.781,32.613,28.767,32.613h126.56v62.657s-129.15.033-129.15.033c-47.178-3.908-85.157-42.289-88.6-89.542L676.755,0h62.333Z"/><rect x="909.086" y="0" width="63.142" height="255.134"/><polyline points="1249.158 192.477 1267.701 136.072 1336.51 136.072 1317.246 192.477"/><rect x="758.561" y="26.443" width="57.476" height="59.936"/><rect x="830.372" y="105.008" width="57.476" height="59.936"/><polygon points="1309.697 213.146 1296.034 255.134 1228.844 255.134 1242.996 213.146 1309.697 213.146"/></g></svg>